<?xml version="1.0" encoding="UTF-8"?>
<!DOCTYPE svg PUBLIC "-//W3C//DTD SVG 1.1//EN" "http://www.w3.org/Graphics/SVG/1.1/DTD/svg11.dtd">
<!-- Creator: CorelDRAW 2017 -->
<svg xmlns="http://www.w3.org/2000/svg" xml:space="preserve" width="297mm" height="240mm" version="1.1" style="shape-rendering:geometricPrecision; text-rendering:geometricPrecision; image-rendering:optimizeQuality; fill-rule:evenodd; clip-rule:evenodd"
viewBox="0 0 29700 24000"
 xmlns:xlink="http://www.w3.org/1999/xlink">
 <defs>
  <style type="text/css">
   <![CDATA[
    .str0 {stroke:#2B2A29;stroke-width:50}
    .fil0 {fill:#f5f5f5}
   ]]>
  </style>
 </defs>
 <g id="Слой_x0020_1">
  <metadata id="CorelCorpID_0Corel-Layer"/>
  <path class="fil0 str0" d="M14867 0c1470,0 2668,740 2668,1646 0,907 -1199,1647 -2668,1647 -1470,0 -2669,-740 -2669,-1647 0,-907 1199,-1646 2669,-1646zm-1980 3397c654,455 1304,770 1962,769 658,-1 1308,-313 1963,-769 -947,3435 -1575,6868 -1600,10304 -25,3436 510,6867 1323,10299 -562,-453 -1121,-431 -1686,-431 -565,0 -1124,-20 -1685,431 813,-3432 1349,-6863 1323,-10299 -25,-3436 -654,-6869 -1600,-10304zm4202 511c3317,357 6267,1495 8436,3130 -3067,1239 -6229,1763 -9507,1861 -21,135 -41,271 -60,406 3462,-104 6757,-710 9891,-2015 2042,1646 3320,3754 3446,6058l-13676 0c-2,131 -4,261 -5,392l13692 0c-5,2447 -1307,4690 -3458,6424 -3159,-1315 -6482,-1920 -9974,-2017 16,135 33,271 50,406 3311,90 6504,613 9600,1864 -2222,1674 -5262,2827 -8678,3154 29,128 59,256 89,384 7197,-710 12762,-5030 12762,-10227 0,-5135 -5434,-9415 -12507,-10201 -34,127 -69,254 -103,382zm-3410 4990c-3278,-97 -6439,-622 -9506,-1861 2169,-1634 5118,-2772 8435,-3129 -34,-127 -68,-255 -103,-382 -7072,786 -12506,5066 -12506,10201 0,5197 5566,9518 12763,10227 30,-128 60,-256 89,-384 -3416,-327 -6457,-1480 -8679,-3154 3096,-1251 6289,-1774 9601,-1864 17,-135 34,-271 50,-406 -3492,97 -6815,702 -9974,2017 -2150,-1733 -3453,-3977 -3458,-6424l13693 0c-1,-131 -3,-261 -5,-392l-13676 0c127,-2304 1404,-4412 3446,-6058 3134,1305 6429,1910 9891,2015 -20,-136 -40,-271 -61,-406z"/>
 </g>
</svg>
